<svg width="20" height="21" viewBox="0 0 20 21" fill="none" xmlns="http://www.w3.org/2000/svg">
<path d="M18.75 10.5C18.75 15.33 14.8344 19.25 10 19.25C5.16562 19.25 1.25 15.33 1.25 10.5C1.25 5.66562 5.16562 1.75 10 1.75C14.8344 1.75 18.75 5.66562 18.75 10.5Z" fill="#283544"/>
<path d="M14.1013 8.28587C14.0536 8.31372 12.9169 8.90155 12.9169 10.2049C12.9705 11.6913 14.3513 12.2126 14.375 12.2126C14.3513 12.2404 14.1665 12.9227 13.6192 13.6378C13.1848 14.2539 12.7026 14.875 11.9705 14.875C11.2741 14.875 11.0241 14.4644 10.2205 14.4644C9.35752 14.4644 9.11334 14.875 8.45262 14.875C7.72048 14.875 7.20262 14.2206 6.74455 13.6103C6.14944 12.8116 5.64361 11.5582 5.62575 10.3547C5.61372 9.71692 5.74493 9.09002 6.07801 8.55754C6.54812 7.81416 7.3874 7.30952 8.30394 7.29288C9.0062 7.27082 9.6312 7.74217 10.0598 7.74217C10.4705 7.74217 11.2383 7.29288 12.1071 7.29288C12.4821 7.29325 13.4821 7.39851 14.1013 8.28587ZM10.0004 7.16555C9.87538 6.58315 10.2205 6.00074 10.5419 5.62923C10.9526 5.17995 11.6013 4.875 12.1607 4.875C12.1964 5.4574 11.9701 6.0286 11.5656 6.4446C11.2026 6.89388 10.5776 7.23211 10.0004 7.16555Z" fill="white"/>
</svg>
