<svg width="20" height="21" viewBox="0 0 20 21" fill="none" xmlns="http://www.w3.org/2000/svg">
<path d="M18.7511 10.6951C18.7511 9.97569 18.6915 9.45069 18.5626 8.90625H10.1797V12.1534H15.1003C15.0011 12.9604 14.4654 14.1757 13.2749 14.9923L13.2582 15.101L15.9087 17.1133L16.0924 17.1312C17.7788 15.6048 18.7511 13.359 18.7511 10.6951" fill="#4285F4"/>
<path d="M10.1793 19.25C12.59 19.25 14.6138 18.4722 16.092 17.1305L13.2745 14.9916C12.5206 15.5068 11.5086 15.8666 10.1793 15.8666C7.81822 15.8666 5.81427 14.3402 5.09992 12.2305L4.99522 12.2392L2.23917 14.3295L2.20312 14.4277C3.67136 17.286 6.68723 19.25 10.1793 19.25Z" fill="#34A853"/>
<path d="M5.09916 12.2322C4.91068 11.6877 4.80159 11.1044 4.80159 10.5016C4.80159 9.89881 4.91068 9.3155 5.08925 8.77106L5.08425 8.65511L2.29366 6.53125L2.20236 6.57381C1.59723 7.75994 1.25 9.09191 1.25 10.5016C1.25 11.9113 1.59723 13.2432 2.20236 14.4294L5.09916 12.2322" fill="#FBBC05"/>
<path d="M10.1794 5.13331C11.8559 5.13331 12.9868 5.84303 13.6317 6.43612L16.1516 4.025C14.604 2.61528 12.59 1.75 10.1794 1.75C6.68725 1.75 3.67137 3.71387 2.20312 6.57218L5.09002 8.76943C5.8143 6.65972 7.81825 5.13331 10.1794 5.13331" fill="#EB4335"/>
</svg>
